<?xml version="1.0" standalone="no"?>
<!DOCTYPE svg PUBLIC "-//W3C//DTD SVG 20010904//EN"
 "http://www.w3.org/TR/2001/REC-SVG-20010904/DTD/svg10.dtd">
<svg version="1.0" xmlns="http://www.w3.org/2000/svg"
 width="270.000000pt" height="270.000000pt" viewBox="0 0 270.000000 270.000000"
 preserveAspectRatio="xMidYMid meet">
<metadata>
Created by potrace 1.11, written by Peter Selinger 2001-2013
</metadata>
<g transform="translate(0.000000,270.000000) scale(0.100000,-0.100000)"
fill="#000000" stroke="none">
<path d="M1 1728 l1 -973 38 245 c60 387 128 825 146 948 l17 112 83 0 83 0
11 -42 c6 -24 33 -115 60 -203 118 -391 230 -772 230 -783 0 -7 4 -12 8 -12 4
0 13 42 20 92 7 51 39 264 72 473 32 209 62 401 66 428 l6 47 70 0 70 0 -6
-27 c-3 -16 -20 -120 -36 -233 -17 -113 -57 -376 -90 -585 -33 -209 -63 -406
-66 -437 l-7 -58 -81 0 -82 0 -22 78 c-56 192 -291 954 -296 959 -2 2 -13 -68
-26 -154 -12 -87 -48 -320 -79 -518 l-56 -360 -68 -3 -67 -3 0 -359 0 -360
1350 0 1350 0 0 1350 0 1350 -1350 0 -1350 0 1 -972z m1649 341 c88 -33 156
-110 175 -199 10 -48 8 -191 -4 -203 -5 -5 -36 -10 -68 -10 l-58 0 -6 76 c-12
139 -59 182 -199 182 -100 0 -136 -16 -187 -83 -55 -72 -73 -185 -39 -237 24
-37 101 -72 261 -121 175 -53 235 -119 243 -269 5 -97 -16 -204 -57 -289 -45
-95 -97 -143 -216 -202 -56 -27 -68 -29 -180 -29 -105 0 -125 3 -162 22 -120
65 -185 214 -166 383 l8 65 67 3 66 3 0 -80 c0 -96 23 -156 74 -194 96 -73
272 -49 358 49 41 47 58 87 66 156 13 108 -32 153 -207 212 -205 68 -252 95
-292 170 -30 56 -30 191 1 291 21 70 75 171 114 212 95 102 275 142 408 92z
m878 -229 c35 -336 112 -1030 118 -1078 l6 -42 -79 0 -80 0 -19 196 -19 195
-184 0 -185 0 -48 -118 c-27 -65 -63 -153 -81 -195 l-32 -78 -72 0 c-40 0 -73
3 -73 6 0 3 66 159 146 347 80 188 207 487 282 665 l137 322 80 -2 80 -3 23
-215z"/>
<path d="M2321 1675 c-35 -82 -85 -202 -112 -264 -27 -63 -49 -119 -49 -123 0
-4 62 -8 139 -8 l138 0 -5 53 c-3 28 -14 151 -26 272 l-21 220 -64 -150z"/>
</g>
</svg>
